<svg width="1200" height="630" viewBox="0 0 1200 630" fill="none" xmlns="http://www.w3.org/2000/svg">
  <defs>
    <linearGradient id="bg" x1="0" y1="0" x2="1200" y2="630" gradientUnits="userSpaceOnUse">
      <stop stop-color="#FDFCFB"/>
      <stop offset="1" stop-color="#F3E8E3"/>
    </linearGradient>
    <linearGradient id="tea" x1="308" y1="170" x2="532" y2="458" gradientUnits="userSpaceOnUse">
      <stop stop-color="#5D9E9C"/>
      <stop offset="1" stop-color="#B8A8D4"/>
    </linearGradient>
    <filter id="shadow" x="0" y="0" width="1200" height="630" filterUnits="userSpaceOnUse" color-interpolation-filters="sRGB">
      <feDropShadow dx="0" dy="18" stdDeviation="30" flood-color="#7A7680" flood-opacity="0.18"/>
    </filter>
  </defs>
  <rect width="1200" height="630" fill="url(#bg)"/>
  <circle cx="1040" cy="92" r="120" fill="#B8A8D4" fill-opacity="0.12"/>
  <circle cx="170" cy="540" r="160" fill="#5D9E9C" fill-opacity="0.10"/>
  <circle cx="1020" cy="520" r="100" fill="#F0A594" fill-opacity="0.12"/>

  <g filter="url(#shadow)">
    <rect x="120" y="110" width="960" height="410" rx="44" fill="#FFFFFF" fill-opacity="0.72"/>
  </g>

  <text x="180" y="220" fill="#2D2A2E" font-family="Arial, Helvetica, sans-serif" font-size="78" font-weight="700">Tea</text>
  <text x="180" y="280" fill="#5D9E9C" font-family="Arial, Helvetica, sans-serif" font-size="28" font-weight="700" letter-spacing="2">PRIVATE AI JOURNALING</text>
  <text x="180" y="350" fill="#2D2A2E" font-family="Arial, Helvetica, sans-serif" font-size="34" font-weight="500">A place to spill your tea.</text>
  <text x="180" y="400" fill="#7A7680" font-family="Arial, Helvetica, sans-serif" font-size="24">Venting, memory, and calm in one private space.</text>

  <g transform="translate(785 170)">
    <path d="M68 0C95.6142 0 118 22.3858 118 50V118C118 170.467 75.467 213 23 213H14C6.26801 213 0 206.732 0 199V50C0 22.3858 22.3858 0 50 0H68Z" fill="url(#tea)"/>
    <path d="M22 72C22 41.6243 46.6243 17 77 17H126C136.493 17 145 25.5066 145 36V108C145 153.287 108.287 190 63 190H54C35.2223 190 22 176.778 22 158V72Z" fill="#FFF7F3" fill-opacity="0.9"/>
    <path d="M149 47C159.493 47 168 55.5066 168 66V98C168 119.539 150.539 137 129 137H121" stroke="#5D9E9C" stroke-width="14" stroke-linecap="round"/>
    <path d="M48 220C48 227.732 54.268 234 62 234H99C106.732 234 113 227.732 113 220" stroke="#2D2A2E" stroke-width="12" stroke-linecap="round"/>
    <path d="M86 33C100 18 106 4 106 -8" stroke="#B8A8D4" stroke-width="10" stroke-linecap="round" opacity="0.7"/>
    <path d="M118 37C132 22 138 8 138 -4" stroke="#F0A594" stroke-width="10" stroke-linecap="round" opacity="0.7"/>
  </g>

  <text x="180" y="470" fill="#2D2A2E" font-family="Arial, Helvetica, sans-serif" font-size="22" font-weight="700">tea.app</text>
</svg>
